<!-- icon666.com - MILLIONS vector ICONS FREE --><svg version="1.1" id="Layer_1" xmlns="http://www.w3.org/2000/svg" xmlns:xlink="http://www.w3.org/1999/xlink" x="0px" y="0px" viewBox="0 0 511.996 511.996" style="enable-background:new 0 0 511.996 511.996;" xml:space="preserve"><g><g><path d="M508.873,152.474l-64-63.996c-2.021-2.042-4.958-3.333-7.688-3.125c-2.896,0.042-5.625,1.25-7.604,3.333l-173.583,183.78 L82.415,88.686c-1.979-2.083-4.708-3.291-7.604-3.333c-2.813-0.104-5.646,1.083-7.688,3.125l-64,63.996 c-4.104,4.104-4.167,10.729-0.167,14.916L248.29,423.373c2.021,2.104,4.792,3.291,7.708,3.291c2.917,0,5.688-1.187,7.708-3.291 L509.04,167.39C513.04,163.202,512.977,156.578,508.873,152.474z M255.998,400.581L25.581,160.165l48.875-48.854l173.792,184.021 c4,4.25,11.5,4.25,15.5,0L437.54,111.311l48.875,48.854L255.998,400.581z"></path></g></g></svg>